<?xml version="1.0" standalone="no"?>
<!DOCTYPE svg PUBLIC "-//W3C//DTD SVG 20010904//EN"
 "http://www.w3.org/TR/2001/REC-SVG-20010904/DTD/svg10.dtd">
<svg version="1.0" xmlns="http://www.w3.org/2000/svg"
 width="1280.000000pt" height="1182.000000pt" viewBox="0 0 1280.000000 1182.000000"
 preserveAspectRatio="xMidYMid meet">
<metadata>
Created by potrace 1.15, written by Peter Selinger 2001-2017
</metadata>
<g transform="translate(0.000000,1182.000000) scale(0.100000,-0.100000)"
fill="#4caf50" stroke="none">
<path d="M8324 11810 c-317 -33 -683 -144 -954 -288 -437 -232 -925 -693
-1172 -1106 -73 -123 -186 -352 -266 -542 -104 -244 -128 -327 -253 -846 -9
-33 -13 -37 -52 -43 -230 -37 -387 -92 -471 -165 l-35 -31 -60 20 c-119 39
-202 46 -531 45 -637 -2 -1097 -84 -1550 -276 -196 -83 -457 -228 -530 -294
-31 -28 -45 -34 -83 -34 -63 0 -165 -23 -272 -60 -421 -149 -829 -465 -1197
-927 -392 -492 -691 -1153 -807 -1788 -65 -354 -86 -592 -85 -975 0 -337 10
-467 55 -741 160 -982 681 -1809 1584 -2514 216 -169 400 -279 711 -424 323
-151 745 -317 1159 -456 110 -38 230 -83 266 -101 188 -94 456 -161 829 -208
402 -51 404 -51 1040 -49 390 1 633 5 685 13 44 6 197 15 340 20 281 9 396 25
570 80 84 26 108 29 365 39 333 13 489 31 681 76 80 19 169 35 197 35 212 0
921 86 1240 151 327 66 473 113 742 238 748 348 1311 764 1659 1226 306 405
518 953 611 1578 43 293 54 448 54 827 1 422 -17 669 -74 1056 -116 786 -405
1520 -811 2060 -116 156 -326 377 -444 470 -452 352 -1200 564 -2001 564
l-212 0 -98 41 c-130 55 -413 153 -512 178 -43 11 -134 29 -203 40 -396 64
-724 71 -934 22 l-86 -21 -32 24 c-73 55 -241 126 -406 172 l-63 17 6 46 c3
25 20 99 37 165 184 730 484 1159 987 1410 256 128 497 185 737 173 180 -9
212 -27 439 -246 118 -114 166 -153 218 -179 192 -94 444 -50 568 100 101 120
159 269 167 428 7 133 -6 196 -63 308 -126 251 -391 442 -797 577 -162 54
-264 81 -382 101 -107 18 -397 26 -511 14z"/>
</g>
</svg>
