<svg width="745" height="265" fill="none" xmlns="http://www.w3.org/2000/svg"><g clip-path="url(#clip0)"><path d="M359 39h31.526C415.088 39 435 58.911 435 83.474 435 94.81 425.81 104 414.474 104H411c-28.719 0-52-23.281-52-52V39z" fill="#0CA678"/><path d="M410.5 72l11.805 12.354a35.003 35.003 0 0 1 9.695 24.18V143.5" stroke="#193154" stroke-width="4" stroke-linecap="round"/><path d="M518 0h-31.526C461.912 0 442 19.912 442 44.474 442 55.81 451.19 65 462.526 65H466c28.719 0 52-23.281 52-52V0zM534 68h-31.526C477.912 68 458 87.912 458 112.474 458 123.81 467.19 133 478.526 133H482c28.719 0 52-23.281 52-52V68z" fill="#0CA678"/><path d="M466.5 38l-11.805 12.354A35.003 35.003 0 0 0 445 74.534V144M482.5 103l-11.805 12.354a35.001 35.001 0 0 0-9.695 24.18V145" stroke="#193154" stroke-width="4" stroke-linecap="round"/><path d="M384 144h121l-14.741 121h-89.061L384 144z" fill="#193154"/><path d="M447.231 183.857a2.235 2.235 0 0 0 2.231-2.238 2.235 2.235 0 0 0-2.231-2.238 2.235 2.235 0 0 0-2.231 2.238c0 1.236.999 2.238 2.231 2.238zM449.462 159.238a2.235 2.235 0 0 1-2.231 2.238 2.235 2.235 0 0 1-2.231-2.238c0-1.236.999-2.238 2.231-2.238a2.235 2.235 0 0 1 2.231 2.238zM447.231 206.238a2.235 2.235 0 0 0 2.231-2.238 2.235 2.235 0 0 0-2.231-2.238A2.235 2.235 0 0 0 445 204c0 1.236.999 2.238 2.231 2.238zM465.077 183.857a2.235 2.235 0 0 0 2.231-2.238 2.235 2.235 0 0 0-2.231-2.238 2.235 2.235 0 0 0-2.231 2.238c0 1.236.999 2.238 2.231 2.238zM467.308 159.238a2.235 2.235 0 0 1-2.231 2.238 2.235 2.235 0 0 1-2.231-2.238c0-1.236.999-2.238 2.231-2.238a2.235 2.235 0 0 1 2.231 2.238zM465.077 206.238a2.235 2.235 0 0 0 2.231-2.238 2.235 2.235 0 0 0-2.231-2.238 2.235 2.235 0 0 0-2.231 2.238c0 1.236.999 2.238 2.231 2.238zM482.923 183.857a2.235 2.235 0 0 0 2.231-2.238 2.235 2.235 0 0 0-2.231-2.238 2.235 2.235 0 0 0-2.231 2.238c0 1.236.999 2.238 2.231 2.238zM485.154 159.238a2.235 2.235 0 0 1-2.231 2.238 2.235 2.235 0 0 1-2.231-2.238c0-1.236.999-2.238 2.231-2.238a2.235 2.235 0 0 1 2.231 2.238zM482.923 206.238a2.235 2.235 0 0 0 2.231-2.238 2.235 2.235 0 0 0-2.231-2.238 2.235 2.235 0 0 0-2.231 2.238c0 1.236.999 2.238 2.231 2.238zM500.769 183.857a2.235 2.235 0 0 0 2.231-2.238 2.235 2.235 0 0 0-2.231-2.238 2.235 2.235 0 0 0-2.231 2.238c0 1.236.999 2.238 2.231 2.238zM503 159.238a2.235 2.235 0 0 1-2.231 2.238 2.235 2.235 0 0 1-2.231-2.238c0-1.236.999-2.238 2.231-2.238a2.235 2.235 0 0 1 2.231 2.238zM500.769 206.238A2.235 2.235 0 0 0 503 204a2.235 2.235 0 0 0-2.231-2.238 2.235 2.235 0 0 0-2.231 2.238c0 1.236.999 2.238 2.231 2.238z" fill="#FFD43B"/><path d="M449.462 204a2.235 2.235 0 0 1-2.231 2.238A2.235 2.235 0 0 1 445 204c0-1.236.999-2.238 2.231-2.238a2.235 2.235 0 0 1 2.231 2.238zM447.231 251a2.235 2.235 0 0 0 2.231-2.238 2.235 2.235 0 0 0-2.231-2.238 2.235 2.235 0 0 0-2.231 2.238c0 1.236.999 2.238 2.231 2.238zM449.462 226.381a2.235 2.235 0 0 1-2.231 2.238 2.235 2.235 0 0 1-2.231-2.238c0-1.236.999-2.238 2.231-2.238a2.235 2.235 0 0 1 2.231 2.238zM467.308 204a2.235 2.235 0 0 1-2.231 2.238 2.235 2.235 0 0 1-2.231-2.238c0-1.236.999-2.238 2.231-2.238a2.235 2.235 0 0 1 2.231 2.238zM465.077 251a2.235 2.235 0 0 0 2.231-2.238 2.235 2.235 0 0 0-2.231-2.238 2.235 2.235 0 0 0-2.231 2.238c0 1.236.999 2.238 2.231 2.238zM467.308 226.381a2.235 2.235 0 0 1-2.231 2.238 2.235 2.235 0 0 1-2.231-2.238c0-1.236.999-2.238 2.231-2.238a2.235 2.235 0 0 1 2.231 2.238zM485.154 204a2.235 2.235 0 0 1-2.231 2.238 2.235 2.235 0 0 1-2.231-2.238c0-1.236.999-2.238 2.231-2.238a2.235 2.235 0 0 1 2.231 2.238zM482.923 251a2.235 2.235 0 0 0 2.231-2.238 2.235 2.235 0 0 0-2.231-2.238 2.235 2.235 0 0 0-2.231 2.238c0 1.236.999 2.238 2.231 2.238zM485.154 226.381a2.235 2.235 0 0 1-2.231 2.238 2.235 2.235 0 0 1-2.231-2.238c0-1.236.999-2.238 2.231-2.238a2.235 2.235 0 0 1 2.231 2.238zM503 204a2.235 2.235 0 0 1-2.231 2.238 2.235 2.235 0 0 1-2.231-2.238c0-1.236.999-2.238 2.231-2.238A2.235 2.235 0 0 1 503 204z" fill="#FFD43B"/><path d="M742.3 252.128l-6.3-3.254v-12.2c0-2.441-1.8-4.067-4.5-4.067h-45c-2.7 0-4.5 1.626-4.5 4.067v12.2l-6.3 3.254c-1.8 0-2.7 1.627-2.7 3.253v5.694c0 2.44 1.8 4.067 4.5 4.067h63c2.7 0 4.5-1.627 4.5-4.067v-5.694c0-1.626-.9-3.253-2.7-3.253z" fill="#193154"/><path d="M693.696 187.87h-2.7c-2.7 0-4.5 1.627-4.5 4.067v4.067c0 2.44 1.8 4.067 4.5 4.067h4.5c0 10.574-1.8 21.962-4.5 32.536h36c-2.7-10.574-4.5-21.962-4.5-32.536h4.5c2.7 0 4.5-1.627 4.5-4.067v-4.067c0-2.44-1.8-4.067-4.5-4.067h-2.7l9.9-22.775c.9-1.626 0-2.44-.9-4.067-.9-.813-2.7-1.626-3.6-1.626h-16.2v-8.134h7.2c.9 0 1.8-.814 1.8-1.627v-4.88c0-.814-.9-1.627-2.7-1.627h-6.3v-6.507c0-.814-.9-1.627-2.7-1.627h-3.6c-1.8 0-2.7.813-2.7 1.627v6.507h-6.3c-1.8 0-2.7.813-2.7 1.627v4.067c0 1.626.9 2.44 2.7 2.44h7.2v8.134h-17.1c-.9 0-2.7.813-3.6 1.626-.9 1.627-.9 2.441 0 4.067l9 22.775z" fill="#193154"/><path stroke="#FFD43B" stroke-width="2" stroke-linecap="round" d="M683 231.821h30M687.994 186.994l27-.167"/><path d="M608.078 154.922c-3.143-3.012-7.202-3.667-9.952-2.096-7.596 4.453-23.703-6.94-42.037 11.263-18.203 18.334-6.81 34.441-11.263 42.037-1.571 2.75-.916 6.809 2.096 9.952 3.143 3.012 7.202 3.667 9.952 2.096 7.596-4.453 23.703 6.94 42.037-11.263 18.203-18.334 6.81-34.441 11.263-42.037 1.571-2.75.916-6.809-2.096-9.952z" fill="#FFD43B"/><path d="M575.863 164.482c-7.596 1.965-17.417 11.786-19.382 19.382-.262 1.047-1.047 1.702-1.964 1.702-.262 0-.393-.131-.524-.131-1.179-.262-1.833-1.44-1.571-2.488 2.226-9.167 13.357-20.298 22.524-22.524 1.048-.262 2.226.392 2.488 1.571.262 1.048-.393 2.226-1.571 2.488z" fill="#fff"/><path d="M631.217 198.5H488.783c-2.676 0-5.055 2.375-4.758 5.047 1.784 22.859 17.247 41.562 38.062 48.687v3.266c0 5.344 4.163 9.5 9.515 9.5h57.093c5.055 0 9.515-4.156 9.515-9.5v-3.266c20.518-7.422 35.683-26.125 37.765-48.687.297-2.672-2.082-5.047-4.758-5.047z" fill="#C2C7D1"/><path stroke="#193154" stroke-width="2" stroke-linecap="round" d="M607 210h30M605 218h30M600 226h30"/><path fill="#193154" d="M9.332 184.249h46.661v43.55H9.332z"/><path fill="#8991A6" d="M18.665 108.554h93.322v70.51H18.665z"/><path fill="#FFD43B" d="M65.325 184.249h46.661v43.55H65.325z"/><path d="M118.813 93H10.801C4.726 93 0 98.043 0 103.758V254.37c0 6.051 4.726 10.758 10.801 10.758h86.41c17.552 0 32.403-14.456 32.403-32.274V103.758c0-5.715-5.063-10.758-10.801-10.758zM54.006 208.648c0 1.681-1.35 2.69-2.7 2.69h-8.101v8.069c0 1.68-1.35 2.689-2.7 2.689h-5.401c-1.688 0-2.7-1.009-2.7-2.689v-8.069h-8.101c-1.688 0-2.7-1.009-2.7-2.69v-5.378c0-1.345 1.012-2.69 2.7-2.69h8.1v-8.069c0-1.344 1.013-2.689 2.7-2.689h5.401c1.35 0 2.7 1.345 2.7 2.689v8.069h8.102c1.35 0 2.7 1.345 2.7 2.69v5.378zm24.303 13.448c-4.726 0-8.101-3.362-8.101-8.069 0-4.37 3.375-8.068 8.1-8.068 4.389 0 8.102 3.698 8.102 8.068 0 4.707-3.713 8.069-8.101 8.069zm-40.505-53.79c-3.038 0-5.4-2.353-5.4-5.379v-43.032c0-2.69 2.362-5.379 5.4-5.379H91.81c2.7 0 5.4 2.689 5.4 5.379v37.653c0 6.051-5.062 10.758-10.8 10.758H37.804zm62.107 37.653c-4.725 0-8.1-3.362-8.1-8.068 0-4.371 3.375-8.069 8.1-8.069 4.388 0 8.101 3.698 8.101 8.069 0 4.706-3.713 8.068-8.1 8.068z" fill="#fff"/><path d="M180.87 255.248l-4.97-2.557v-9.586c0-1.917-1.42-3.195-3.55-3.195h-49.7c-2.13 0-3.55 1.278-3.55 3.195v9.586l-4.97 2.557c-1.42 0-2.13 1.278-2.13 2.556v4.474c0 1.917 1.42 3.195 3.55 3.195h63.9c2.13 0 3.55-1.278 3.55-3.195v-4.474c0-1.278-.71-2.556-2.13-2.556zM166.67 176h7.81c.71 0 1.42.639 1.42 1.278v17.256c0 1.917-.71 3.195-1.42 4.473l-7.1 6.391 2.84 34.511h-45.44l3.55-34.511-7.1-6.391c-1.42-1.278-2.13-2.556-2.13-4.473v-17.256c0-.639.71-1.278 1.42-1.278h8.52c.71 0 1.42.639 1.42 1.278v7.669h7.1v-7.669c0-.639.71-1.278 2.13-1.278h15.62c1.42 0 2.13.639 2.13 1.278v7.669h7.1v-7.669c0-.639.71-1.278 2.13-1.278z" fill="#FFD43B"/><path d="M151.94 218.077H142v-9.587c0-2.556 2.13-4.473 4.97-4.473s4.97 1.917 4.97 4.473v9.587z" fill="#8991A6"/><path stroke="#8991A6" stroke-width="2" stroke-linecap="round" d="M117 239.151h30"/></g><defs><clipPath id="clip0"><path fill="#fff" d="M0 0h745v265H0z"/></clipPath></defs></svg>